0
SECTION
2
HEADER
9
$INSUNITS
70
4
9
$ACADVER
1
AC1014
9
$HANDSEED
5
FFFF
0
ENDSEC
0
SECTION
2
TABLES
0
TABLE
2
VPORT
5
8
100
AcDbSymbolTable
0
ENDTAB
0
TABLE
2
LTYPE
5
5
100
AcDbSymbolTable
0
LTYPE
5
14
100
AcDbSymbolTableRecord
100
AcDbLinetypeTableRecord
2
BYBLOCK
70
0
0
LTYPE
5
15
100
AcDbSymbolTableRecord
100
AcDbLinetypeTableRecord
2
BYLAYER
70
0
0
ENDTAB
0
TABLE
2
LAYER
5
2
100
AcDbSymbolTable
70
2
0
LAYER
5
50
100
AcDbSymbolTableRecord
100
AcDbLayerTableRecord
2
0
70
0
6
CONTINUOUS
0
ENDTAB
0
TABLE
2
STYLE
5
3
100
AcDbSymbolTable
70
1
0
STYLE
5
11
100
AcDbSymbolTableRecord
100
AcDbTextStyleTableRecord
2
STANDARD
70
0
0
ENDTAB
0
TABLE
2
VIEW
5
6
100
AcDbSymbolTable
70
0
0
ENDTAB
0
TABLE
2
UCS
5
7
100
AcDbSymbolTable
70
0
0
ENDTAB
0
TABLE
2
APPID
5
9
100
AcDbSymbolTable
70
2
0
APPID
5
12
100
AcDbSymbolTableRecord
100
AcDbRegAppTableRecord
2
ACAD
70
0
0
ENDTAB
0
TABLE
2
DIMSTYLE
5
A
100
AcDbSymbolTable
70
1
0
ENDTAB
0
TABLE
2
BLOCK_RECORD
5
1
100
AcDbSymbolTable
70
1
0
BLOCK_RECORD
5
1F
100
AcDbSymbolTableRecord
100
AcDbBlockTableRecord
2
*MODEL_SPACE
0
BLOCK_RECORD
5
1B
100
AcDbSymbolTableRecord
100
AcDbBlockTableRecord
2
*PAPER_SPACE
0
ENDTAB
0
ENDSEC
0
SECTION
2
BLOCKS
0
BLOCK
5
20
100
AcDbEntity
100
AcDbBlockBegin
2
*MODEL_SPACE
0
ENDBLK
5
21
100
AcDbEntity
100
AcDbBlockEnd
0
BLOCK
5
1C
100
AcDbEntity
100
AcDbBlockBegin
2
*PAPER_SPACE
0
ENDBLK
5
1D
100
AcDbEntity
100
AcDbBlockEnd
0
ENDSEC
0
SECTION
2
ENTITIES
0
LWPOLYLINE
5
100
100
AcDbEntity
8
0
100
AcDbPolyline
90
12
70
1
43
0.0
10
7.5810775860512614
20
8.0000000000000213
10
7.5810775860512614
20
5.2861288983779389
10
6.1289169127679184
20
5.2861288983779389
10
6.1289169127679184
20
8.0000000000000213
10
0.18772985719250679
20
8.0000000000000231
10
0.18772985719250679
20
-7.4999999999999805
10
4.5820114146876998
20
-7.4999999999999805
10
4.5820114146876998
20
-4.8177481967205384
10
8.8617523281881088
20
-4.8177481967205384
10
8.8617523281881088
20
-7.4999999999999787
10
10.186605594562739
20
-7.4999999999999787
10
10.186605594562739
20
8.0000000000000213
0
LWPOLYLINE
5
101
100
AcDbEntity
8
0
100
AcDbPolyline
90
4
70
1
43
0.0
10
4.4241830296901181
20
2.9698299541713706
10
2.6241830296901214
20
2.9698299541713635
42
-0.99999999999999989
10
2.6241830296901214
20
3.76982995417137
10
4.4241830296901181
20
3.7698299541713625
42
-0.99999999999999989
0
LWPOLYLINE
5
102
100
AcDbEntity
8
0
100
AcDbPolyline
90
4
70
1
43
0.0
10
5.9879375943887165
20
3.76982995417137
10
7.7879375943887119
20
3.7698299541713625
42
-0.99999999999999989
10
7.7879375943887119
20
2.9698299541713706
10
5.9879375943887165
20
2.9698299541713635
42
-0.99999999999999989
0
LWPOLYLINE
5
103
100
AcDbEntity
8
0
100
AcDbPolyline
90
4
70
1
43
0.0
10
5.6130281267210975
20
0.7958687268955642
42
-0.99999999999999989
10
4.8130281267210968
20
0.79586872689556498
10
4.8130281267210702
20
2.5958687268955627
42
-0.99999999999999989
10
5.6130281267211242
20
2.5958687268955627
0
LWPOLYLINE
5
104
100
AcDbEntity
8
0
100
AcDbPolyline
90
4
70
1
43
0.0
10
5.6191354574994783
20
-2.5606042736381056
42
-0.99999999999999989
10
4.8191354574994865
20
-2.5606042736381056
10
4.81913545749949
20
-0.76060427363810712
42
-0.99999999999999989
10
5.619135457499473
20
-0.76060427363810745
0
LWPOLYLINE
5
105
100
AcDbEntity
8
0
100
AcDbPolyline
90
4
70
1
43
0.0
10
6.0079805545304605
20
-2.934565500913914
10
7.8079805545304559
20
-2.934565500913906
42
-0.99999999999999989
10
7.8079805545304559
20
-3.734565500913912
10
6.0079805545304605
20
-3.7345655009139058
42
-0.99999999999999989
0
LWPOLYLINE
5
106
100
AcDbEntity
8
0
100
AcDbPolyline
90
4
70
1
43
0.0
10
4.4442259898318621
20
-2.9345655009139064
42
-0.99999999999999989
10
4.4442259898318621
20
-3.7345655009139129
10
2.6442259898318654
20
-3.7345655009139063
42
-0.99999999999999989
10
2.6442259898318654
20
-2.9345655009139144
0
LWPOLYLINE
5
107
100
AcDbEntity
8
0
100
AcDbPolyline
90
4
70
1
43
0.0
10
8.1699688542889071
20
-2.542468757897228
10
8.1699688542888715
20
-0.742468757897222
42
-0.99999999999999989
10
8.9699688542889255
20
-0.74246875789722222
10
8.96996885428889
20
-2.542468757897228
42
-0.99999999999999989
0
LWPOLYLINE
5
108
100
AcDbEntity
8
0
100
AcDbPolyline
90
4
70
1
43
0.0
10
5.9960076270131264
20
-0.36755929022962086
42
-0.99999999999999989
10
5.9960076270131264
20
0.43244070977037985
10
7.7960076270131218
20
0.43244070977037541
42
-0.99999999999999989
10
7.7960076270131218
20
-0.36755929022961642
0
LWPOLYLINE
5
109
100
AcDbEntity
8
0
100
AcDbPolyline
90
4
70
1
43
0.0
10
8.1699688542888982
20
2.6212858068013825
42
-0.99999999999999989
10
8.9699688542888989
20
2.6212858068013825
10
8.96996885428889
20
0.82128580680138086
42
-0.99999999999999989
10
8.1699688542889071
20
0.82128580680138064
0
LWPOLYLINE
5
110
100
AcDbEntity
8
0
100
AcDbPolyline
90
4
70
1
43
0.0
10
2.2655733992036509
20
0.80124284665962331
42
-0.99999999999999989
10
1.4655733992036413
20
0.80124284665962353
10
1.4655733992036546
20
2.6012428466596251
42
-0.99999999999999989
10
2.2655733992036375
20
2.6012428466596251
0
LWPOLYLINE
5
111
100
AcDbEntity
8
0
100
AcDbPolyline
90
4
70
1
43
0.0
10
4.4395346264794551
20
0.42633337899202217
42
-0.99999999999999989
10
4.4395346264794551
20
-0.37366662100797854
10
2.6395346264794584
20
-0.3736666210079741
42
-0.99999999999999989
10
2.6395346264794584
20
0.42633337899201773
0
LWPOLYLINE
5
112
100
AcDbEntity
8
0
100
AcDbPolyline
90
4
70
1
43
0.0
10
2.2655733992036509
20
-2.5625117180389854
42
-0.99999999999999989
10
1.4655733992036413
20
-2.5625117180389854
10
1.4655733992036546
20
-0.76251171803897932
42
-0.99999999999999989
10
2.2655733992036375
20
-0.76251171803897955
0
LWPOLYLINE
5
113
100
AcDbEntity
8
0
100
AcDbPolyline
90
4
70
1
43
0.0
10
3.9371046628570228
20
0.73713064353006863
10
2.5811913281216037
20
2.0932173087946198
42
-0.99999999999999989
10
3.1469129062494816
20
2.6588665782544938
10
4.5028262451993157
20
1.3027799087749872
42
-0.9999999925494194
0
LWPOLYLINE
5
114
100
AcDbEntity
8
0
100
AcDbPolyline
90
4
70
1
43
0.0
10
2.5810541519264718
20
-2.053097267411502
10
3.9371408171910205
20
-0.69718393267605183
42
-0.99999999999999989
10
4.5027900866509025
20
-1.2629055108039389
10
3.1467034213863543
20
-2.6188188455393888
42
-0.99999999999999989
0
LWPOLYLINE
5
115
100
AcDbEntity
8
0
100
AcDbPolyline
90
4
70
1
43
0.0
10
7.293017997592468
20
-2.6189560217344843
10
5.9371046628570507
20
-1.2628693564699314
42
-0.99999999999999989
10
6.5028262409849287
20
-0.69722008701005889
10
7.858739575720346
20
-2.0533067522746107
42
-0.99999999999999989
0
LWPOLYLINE
5
116
100
AcDbEntity
8
0
100
AcDbPolyline
90
4
70
1
43
0.0
10
7.8588767519154779
20
2.0930078239315089
10
6.5027900866509309
20
0.73709448919606313
42
-0.99999999999999989
10
5.9371408171910485
20
1.3028160673239497
10
7.2932274824555954
20
2.6587294020593957
42
-0.99999999999999989
0
LWPOLYLINE
5
117
100
AcDbEntity
8
0
100
AcDbPolyline
90
4
70
1
43
0.0
10
12.246487424791006
20
8.0000000000000213
10
22.24536316216124
20
8.0000000000000213
10
22.24536316216124
20
-7.4999999999999787
10
12.246487424791006
20
-7.4999999999999813
0
CIRCLE
5
118
100
AcDbEntity
8
0
100
AcDbCircle
10
19.795657089321242
20
-3.3359580564754432
30
0
40
0.35000000000000142
210
0
220
-0
230
1
0
CIRCLE
5
119
100
AcDbEntity
8
0
100
AcDbCircle
10
18.956677824387565
20
-3.3359580564754432
30
0
40
0.35000000000000142
210
0
220
-0
230
1
0
CIRCLE
5
120
100
AcDbEntity
8
0
100
AcDbCircle
10
18.117698559453892
20
-3.3359580564754432
30
0
40
0.35000000000000142
210
0
220
-0
230
1
0
CIRCLE
5
121
100
AcDbEntity
8
0
100
AcDbCircle
10
16.439740029586503
20
-3.3359580564754432
30
0
40
0.35000000000000142
210
0
220
-0
230
1
0
CIRCLE
5
122
100
AcDbEntity
8
0
100
AcDbCircle
10
15.600760764652826
20
-3.3359580564754432
30
0
40
0.35000000000000142
210
0
220
-0
230
1
0
CIRCLE
5
123
100
AcDbEntity
8
0
100
AcDbCircle
10
14.761781499719149
20
-3.3359580564754432
30
0
40
0.35000000000000142
210
0
220
-0
230
1
0
CIRCLE
5
124
100
AcDbEntity
8
0
100
AcDbCircle
10
20.634636354254923
20
-2.4969580564754432
30
0
40
0.35000000000000142
210
0
220
-0
230
1
0
CIRCLE
5
125
100
AcDbEntity
8
0
100
AcDbCircle
10
17.27871929452018
20
-2.4969580564754432
30
0
40
0.35000000000000142
210
0
220
-0
230
1
0
CIRCLE
5
126
100
AcDbEntity
8
0
100
AcDbCircle
10
13.922802234785472
20
-2.4969580564754432
30
0
40
0.35000000000000142
210
0
220
-0
230
1
0
CIRCLE
5
127
100
AcDbEntity
8
0
100
AcDbCircle
10
20.634636354254923
20
-1.6579580564754433
30
0
40
0.35000000000000142
210
0
220
-0
230
1
0
CIRCLE
5
128
100
AcDbEntity
8
0
100
AcDbCircle
10
17.27871929452018
20
-1.6579580564754433
30
0
40
0.35000000000000142
210
0
220
-0
230
1
0
CIRCLE
5
129
100
AcDbEntity
8
0
100
AcDbCircle
10
13.922802234785472
20
-1.6579580564754433
30
0
40
0.35000000000000142
210
0
220
-0
230
1
0
CIRCLE
5
130
100
AcDbEntity
8
0
100
AcDbCircle
10
20.634636354254923
20
-0.81895805647544273
30
0
40
0.35000000000000142
210
0
220
-0
230
1
0
CIRCLE
5
131
100
AcDbEntity
8
0
100
AcDbCircle
10
17.27871929452018
20
-0.81895805647544273
30
0
40
0.35000000000000142
210
0
220
-0
230
1
0
CIRCLE
5
132
100
AcDbEntity
8
0
100
AcDbCircle
10
13.922802234785472
20
-0.81895805647544273
30
0
40
0.35000000000000142
210
0
220
-0
230
1
0
CIRCLE
5
133
100
AcDbEntity
8
0
100
AcDbCircle
10
19.795657089321242
20
0.020041943524557012
30
0
40
0.35000000000000142
210
0
220
-0
230
1
0
CIRCLE
5
134
100
AcDbEntity
8
0
100
AcDbCircle
10
18.956677824387565
20
0.020041943524557012
30
0
40
0.35000000000000142
210
0
220
-0
230
1
0
CIRCLE
5
135
100
AcDbEntity
8
0
100
AcDbCircle
10
18.117698559453892
20
0.020041943524557012
30
0
40
0.35000000000000142
210
0
220
-0
230
1
0
CIRCLE
5
136
100
AcDbEntity
8
0
100
AcDbCircle
10
16.439740029586503
20
0.020041943524557012
30
0
40
0.35000000000000142
210
0
220
-0
230
1
0
CIRCLE
5
137
100
AcDbEntity
8
0
100
AcDbCircle
10
15.600760764652826
20
0.020041943524557012
30
0
40
0.35000000000000142
210
0
220
-0
230
1
0
CIRCLE
5
138
100
AcDbEntity
8
0
100
AcDbCircle
10
14.761781499719149
20
0.020041943524557012
30
0
40
0.35000000000000142
210
0
220
-0
230
1
0
CIRCLE
5
139
100
AcDbEntity
8
0
100
AcDbCircle
10
20.634636354254923
20
0.85904194352455676
30
0
40
0.35000000000000142
210
0
220
-0
230
1
0
CIRCLE
5
140
100
AcDbEntity
8
0
100
AcDbCircle
10
17.27871929452018
20
0.85904194352455676
30
0
40
0.35000000000000142
210
0
220
-0
230
1
0
CIRCLE
5
141
100
AcDbEntity
8
0
100
AcDbCircle
10
13.922802234785472
20
0.85904194352455676
30
0
40
0.35000000000000142
210
0
220
-0
230
1
0
CIRCLE
5
142
100
AcDbEntity
8
0
100
AcDbCircle
10
20.634636354254923
20
1.6980419435245575
30
0
40
0.35000000000000142
210
0
220
-0
230
1
0
CIRCLE
5
143
100
AcDbEntity
8
0
100
AcDbCircle
10
17.27871929452018
20
1.6980419435245575
30
0
40
0.35000000000000142
210
0
220
-0
230
1
0
CIRCLE
5
144
100
AcDbEntity
8
0
100
AcDbCircle
10
13.922802234785472
20
1.6980419435245575
30
0
40
0.35000000000000142
210
0
220
-0
230
1
0
CIRCLE
5
145
100
AcDbEntity
8
0
100
AcDbCircle
10
20.634636354254923
20
2.5370419435245575
30
0
40
0.35000000000000142
210
0
220
-0
230
1
0
CIRCLE
5
146
100
AcDbEntity
8
0
100
AcDbCircle
10
17.27871929452018
20
2.5370419435245575
30
0
40
0.35000000000000142
210
0
220
-0
230
1
0
CIRCLE
5
147
100
AcDbEntity
8
0
100
AcDbCircle
10
13.922802234785472
20
2.5370419435245575
30
0
40
0.35000000000000142
210
0
220
-0
230
1
0
CIRCLE
5
148
100
AcDbEntity
8
0
100
AcDbCircle
10
19.795657089321242
20
3.376041943524557
30
0
40
0.35000000000000142
210
0
220
-0
230
1
0
CIRCLE
5
149
100
AcDbEntity
8
0
100
AcDbCircle
10
18.956677824387565
20
3.376041943524557
30
0
40
0.35000000000000142
210
0
220
-0
230
1
0
CIRCLE
5
150
100
AcDbEntity
8
0
100
AcDbCircle
10
18.117698559453892
20
3.376041943524557
30
0
40
0.35000000000000142
210
0
220
-0
230
1
0
CIRCLE
5
151
100
AcDbEntity
8
0
100
AcDbCircle
10
16.439740029586503
20
3.376041943524557
30
0
40
0.35000000000000142
210
0
220
-0
230
1
0
CIRCLE
5
152
100
AcDbEntity
8
0
100
AcDbCircle
10
15.600760764652826
20
3.376041943524557
30
0
40
0.35000000000000142
210
0
220
-0
230
1
0
CIRCLE
5
153
100
AcDbEntity
8
0
100
AcDbCircle
10
14.761781499719149
20
3.376041943524557
30
0
40
0.35000000000000142
210
0
220
-0
230
1
0
CIRCLE
5
154
100
AcDbEntity
8
0
100
AcDbCircle
10
16.278723019519461
20
1.019955278260005
30
0
40
0.35000000000000142
210
0
220
-0
230
1
0
CIRCLE
5
155
100
AcDbEntity
8
0
100
AcDbCircle
10
15.600760764652826
20
1.7021950828503907
30
0
40
0.35000000000000142
210
0
220
-0
230
1
0
CIRCLE
5
156
100
AcDbEntity
8
0
100
AcDbCircle
10
14.922809684784042
20
2.376041943524557
30
0
40
0.35000000000000142
210
0
220
-0
230
1
0
CIRCLE
5
157
100
AcDbEntity
8
0
100
AcDbCircle
10
16.278723019519461
20
-0.98004472173999535
30
0
40
0.35000000000000142
210
0
220
-0
230
1
0
CIRCLE
5
158
100
AcDbEntity
8
0
100
AcDbCircle
10
15.59648321492908
20
-1.6580069766066441
30
0
40
0.35000000000000142
210
0
220
-0
230
1
0
CIRCLE
5
159
100
AcDbEntity
8
0
100
AcDbCircle
10
14.922636354254912
20
-2.3359580564754454
30
0
40
0.35000000000000142
210
0
220
-0
230
1
0
CIRCLE
5
160
100
AcDbEntity
8
0
100
AcDbCircle
10
18.278723019519489
20
-0.98004472173999524
30
0
40
0.35000000000000142
210
0
220
-0
230
1
0
CIRCLE
5
161
100
AcDbEntity
8
0
100
AcDbCircle
10
18.956685274386121
20
-1.6622845263303812
30
0
40
0.35000000000000142
210
0
220
-0
230
1
0
CIRCLE
5
162
100
AcDbEntity
8
0
100
AcDbCircle
10
19.634636354254905
20
-2.3361313870045475
30
0
40
0.35000000000000142
210
0
220
-0
230
1
0
CIRCLE
5
163
100
AcDbEntity
8
0
100
AcDbCircle
10
18.278723019519489
20
1.0199552782600065
30
0
40
0.35000000000000142
210
0
220
-0
230
1
0
CIRCLE
5
164
100
AcDbEntity
8
0
100
AcDbCircle
10
18.960962824109867
20
1.6979175331266549
30
0
40
0.35000000000000142
210
0
220
-0
230
1
0
CIRCLE
5
165
100
AcDbEntity
8
0
100
AcDbCircle
10
19.634809684784035
20
2.3758686129954523
30
0
40
0.35000000000000142
210
0
220
-0
230
1
0
LINE
5
166
100
AcDbEntity
8
0
100
AcDbLine
10
4.5820114146876998
20
-7.4999999999999805
30
0
11
8.8617523281881088
21
-7.4999999999999787
31
0
0
LINE
5
167
100
AcDbEntity
8
0
100
AcDbLine
10
6.1289169127679184
20
8.0000000000000213
30
0
11
7.5810775860512614
21
8.0000000000000213
31
0
0
ENDSEC
0
SECTION
2
OBJECTS
0
DICTIONARY
5
C
100
AcDbDictionary
3
ACAD_GROUP
350
D
3
ACAD_MLINESTYLE
350
17
0
DICTIONARY
5
D
100
AcDbDictionary
0
DICTIONARY
5
1A
330
C
100
AcDbDictionary
0
DICTIONARY
5
17
100
AcDbDictionary
0
ENDSEC
0
EOF
